# xmcd
#
# Track frame offsets:
#	150
#	15846
#	33530
#	45652
#	58425
#	85316
#	98248
#	121712
#	150953
#	165074
#	183298
#	197744
#	243050
#	265163
#
# Disc length: 3978 seconds
#
# Revision: 0
# Processed by: cddbd v1.5.1PL0 Copyright (c) Steve Scherf et al.
# Submitted via: dBpowerAMP V4.0
#
DISCID=9e0f880e
DTITLE=Hayseed Dixie - Live At The Mercy Lounge: Nov. 7, 2003 - Disc 2
DYEAR=2003
DGENRE=Hillbilly
TTITLE0=Fat Bottom Girls
TTITLE1=Keepin' Your Poop In A Jar
TTITLE2=I Wish I Was You
TTITLE3=T.N.T.
TTITLE4=Paradise
TTITLE5=Ellie Schaffer
TTITLE6=Shady Grove
TTITLE7=Foggy Mountain Breakdown
TTITLE8=Doreen
TTITLE9=Katy Daley
TTITLE10=Rollin' In My Sweet Baby's Arms
TTITLE11=Highway To Hell
TTITLE12=In The Pines
TTITLE13=Will The Circle Be Unbroken
EXTD=
EXTT0=
EXTT1=
EXTT2=
EXTT3=
EXTT4=
EXTT5=
EXTT6=
EXTT7=
EXTT8=
EXTT9=
EXTT10=
EXTT11=
EXTT12=
EXTT13=
PLAYORDER=
